<?xml version="1.0" encoding="UTF-8" standalone="no"?>
<!-- Created with Inkscape (http://www.inkscape.org/) -->

<svg
   xmlns:svg="http://www.w3.org/2000/svg"
   xmlns="http://www.w3.org/2000/svg"
   version="1.1"
   width="123.75"
   height="130.06"
   id="svg2">
  <defs
     id="defs4">
    <marker
       refX="0"
       refY="0"
       orient="auto"
       id="Arrow2Send"
       style="overflow:visible">
      <path
         d="M 8.7185878,4.0337352 -2.2072895,0.01601326 8.7185884,-4.0017078 c -1.7454984,2.3720609 -1.7354408,5.6174519 -6e-7,8.035443 z"
         transform="matrix(-0.3,0,0,-0.3,0.69,0)"
         id="path3642"
         style="font-size:12px;fill-rule:evenodd;stroke-width:0.625;stroke-linejoin:round" />
    </marker>
    <marker
       refX="0"
       refY="0"
       orient="auto"
       id="Arrow2Mend"
       style="overflow:visible">
      <path
         d="M 8.7185878,4.0337352 -2.2072895,0.01601326 8.7185884,-4.0017078 c -1.7454984,2.3720609 -1.7354408,5.6174519 -6e-7,8.035443 z"
         transform="scale(-0.6,-0.6)"
         id="path3636"
         style="font-size:12px;fill-rule:evenodd;stroke-width:0.625;stroke-linejoin:round" />
    </marker>
  </defs>
  <g
     transform="translate(-70.741062,-49.530395)"
     id="layer1">
    <path
       d="M 82.877643,141.53812 155.95232,122.5757"
       id="path5285"
       style="fill:#ff0000;stroke:#ff0000;stroke-width:1.29499424;stroke-linecap:butt;stroke-linejoin:miter;stroke-miterlimit:4;stroke-opacity:1;stroke-dasharray:none;marker-end:none" />
    <path
       d="M 82.877643,141.53812 164.04603,129.51317"
       id="path5287"
       style="fill:#ff0000;stroke:#ff0000;stroke-width:1.29499424;stroke-linecap:butt;stroke-linejoin:miter;stroke-miterlimit:4;stroke-opacity:1;stroke-dasharray:none;marker-end:none" />
    <path
       d="m 82.877643,141.53812 84.637127,5.08747"
       id="path5174"
       style="fill:#ff0000;stroke:#ff0000;stroke-width:1.29499424;stroke-linecap:butt;stroke-linejoin:miter;stroke-miterlimit:4;stroke-opacity:1;stroke-dasharray:none;marker-end:none" />
    <path
       d="m 194.28571,76.647896 a 37.142857,37.142857 0 1 1 -74.28571,0 37.142857,37.142857 0 1 1 74.28571,0 z"
       transform="matrix(0.04358154,0,0,0.04358154,76.029104,138.19768)"
       id="path2816"
       style="fill:#000000;fill-opacity:1;stroke:none" />
    <path
       d="M 87.71875,130.0625 C 93.496247,118.61528 96.78125,105.69824 96.78125,92 96.78125,45.256206 58.868794,7.375 12.125,7.375 8.004073,7.375 3.9634526,7.6808736 0,8.25"
       transform="translate(70.741062,49.530395)"
       id="path2818"
       style="fill:none;stroke:#000000;stroke-width:0.89030856;stroke-miterlimit:4;stroke-dasharray:1.78061716, 1.78061716;stroke-dashoffset:0" />
    <path
       d="m 194.28571,76.647896 a 37.142857,37.142857 0 1 1 -74.28571,0 37.142857,37.142857 0 1 1 74.28571,0 z"
       transform="matrix(0.04358154,0,0,0.04358154,157.03364,126.19198)"
       id="path3592"
       style="fill:#000000;fill-opacity:1;stroke:none" />
    <path
       d="m 194.28571,76.647896 a 37.142857,37.142857 0 1 1 -74.28571,0 37.142857,37.142857 0 1 1 74.28571,0 z"
       transform="matrix(0.04358154,0,0,0.04358154,149.11342,119.41721)"
       id="path3594"
       style="fill:#000000;fill-opacity:1;stroke:none" />
    <path
       d="m 194.28571,76.647896 a 37.142857,37.142857 0 1 1 -74.28571,0 37.142857,37.142857 0 1 1 74.28571,0 z"
       transform="matrix(0.04358154,0,0,0.04358154,160.66624,143.74766)"
       id="path3596"
       style="fill:#000000;fill-opacity:1;stroke:none" />
    <path
       d="m 194.28571,76.647896 a 37.142857,37.142857 0 1 1 -74.28571,0 37.142857,37.142857 0 1 1 74.28571,0 z"
       transform="matrix(0.04358154,0,0,0.04358154,167.73916,116.60371)"
       id="path3598"
       style="fill:#000000;fill-opacity:1;stroke:none" />
    <path
       d="m 194.28571,76.647896 a 37.142857,37.142857 0 1 1 -74.28571,0 37.142857,37.142857 0 1 1 74.28571,0 z"
       transform="matrix(0.04358154,0,0,0.04358154,159.26678,113.65874)"
       id="path3600"
       style="fill:#000000;fill-opacity:1;stroke:none" />
    <text
       x="84.664032"
       y="138.34178"
       id="text5188"
       xml:space="preserve"
       style="font-size:9.06496048px;font-style:normal;font-variant:normal;font-weight:normal;font-stretch:normal;fill:#000000;fill-opacity:1;stroke:none;font-family:DejaVu Serif;-inkscape-font-specification:DejaVu Serif"><tspan
         x="84.664032"
         y="138.34178"
         id="tspan5190">A</tspan></text>
    <path
       d="m 194.28571,76.647896 a 37.142857,37.142857 0 1 1 -74.28571,0 37.142857,37.142857 0 1 1 74.28571,0 z"
       transform="matrix(0.46694505,0,0,0.46694505,93.212689,110.83523)"
       id="path5263"
       style="fill:none;stroke:#000000;stroke-width:1.90666676;stroke-miterlimit:4;stroke-dasharray:3.81333342, 3.81333342;stroke-dashoffset:0" />
    <path
       d="m 194.28571,76.647896 a 37.142857,37.142857 0 1 1 -74.28571,0 37.142857,37.142857 0 1 1 74.28571,0 z"
       transform="matrix(0.04358154,0,0,0.04358154,173.28914,125.62242)"
       id="path5265"
       style="fill:#000000;fill-opacity:1;stroke:none" />
    <path
       d="m 194.28571,76.647896 a 37.142857,37.142857 0 1 1 -74.28571,0 37.142857,37.142857 0 1 1 74.28571,0 z"
       transform="matrix(0.04358154,0,0,0.04358154,169.58915,134.87238)"
       id="path5267"
       style="fill:#000000;fill-opacity:1;stroke:none" />
    <path
       d="m 194.28571,76.647896 a 37.142857,37.142857 0 1 1 -74.28571,0 37.142857,37.142857 0 1 1 74.28571,0 z"
       transform="matrix(0.04358154,0,0,0.04358154,181.1516,130.94115)"
       id="path5269"
       style="fill:#000000;fill-opacity:1;stroke:none" />
    <path
       d="m 194.28571,76.647896 a 37.142857,37.142857 0 1 1 -74.28571,0 37.142857,37.142857 0 1 1 74.28571,0 z"
       transform="matrix(0.04358154,0,0,0.04358154,180.6891,119.14745)"
       id="path5271"
       style="fill:#000000;fill-opacity:1;stroke:none" />
    <path
       d="m 194.28571,76.647896 a 37.142857,37.142857 0 1 1 -74.28571,0 37.142857,37.142857 0 1 1 74.28571,0 z"
       transform="matrix(0.04358154,0,0,0.04358154,181.38285,139.72861)"
       id="path5273"
       style="fill:#000000;fill-opacity:1;stroke:none" />
    <path
       d="m 194.28571,76.647896 a 37.142857,37.142857 0 1 1 -74.28571,0 37.142857,37.142857 0 1 1 74.28571,0 z"
       transform="matrix(0.04358154,0,0,0.04358154,175.37037,140.65361)"
       id="path5275"
       style="fill:#000000;fill-opacity:1;stroke:none" />
    <path
       d="m 194.28571,76.647896 a 37.142857,37.142857 0 1 1 -74.28571,0 37.142857,37.142857 0 1 1 74.28571,0 z"
       transform="matrix(0.04358154,0,0,0.04358154,176.75787,113.13498)"
       id="path5277"
       style="fill:#000000;fill-opacity:1;stroke:none" />
    <path
       d="m 194.28571,76.647896 a 37.142857,37.142857 0 1 1 -74.28571,0 37.142857,37.142857 0 1 1 74.28571,0 z"
       transform="matrix(0.04358154,0,0,0.04358154,167.73916,107.1225)"
       id="path5279"
       style="fill:#000000;fill-opacity:1;stroke:none" />
    <path
       d="m 194.28571,76.647896 a 37.142857,37.142857 0 1 1 -74.28571,0 37.142857,37.142857 0 1 1 74.28571,0 z"
       transform="matrix(0.40468571,0,0,0.40468571,99.758814,98.726101)"
       id="path5281"
       style="fill:none;stroke:#000000;stroke-width:2.20000005;stroke-miterlimit:4;stroke-dasharray:4.40000013, 4.40000013;stroke-dashoffset:0" />
    <path
       d="m 194.28571,76.647896 a 37.142857,37.142857 0 1 1 -74.28571,0 37.142857,37.142857 0 1 1 74.28571,0 z"
       transform="matrix(0.51675253,0,0,0.51675253,74.285849,83.198949)"
       id="path5283"
       style="fill:none;stroke:#000000;stroke-width:1.72289157;stroke-miterlimit:4;stroke-dasharray:3.4457832, 3.4457832;stroke-dashoffset:0" />
  </g>
</svg>
